<?xml version="1.0" standalone="no"?>
<!DOCTYPE svg PUBLIC "-//W3C//DTD SVG 20010904//EN"
 "http://www.w3.org/TR/2001/REC-SVG-20010904/DTD/svg10.dtd">
<svg version="1.0" xmlns="http://www.w3.org/2000/svg"
 width="500.000000pt" height="500.000000pt" viewBox="0 0 500.000000 500.000000"
 preserveAspectRatio="xMidYMid meet">

<g transform="translate(0.000000,500.000000) scale(0.100000,-0.100000)"
fill="#000000" stroke="none">
<path d="M0 2500 l0 -2500 2500 0 2500 0 0 2500 0 2500 -2500 0 -2500 0 0
-2500z m3369 1000 c170 -86 220 -319 105 -487 -51 -74 -119 -116 -189 -115
-60 0 -129 27 -160 61 -27 31 -29 134 -3 139 12 2 19 -5 24 -25 26 -110 117
-144 214 -80 117 78 104 297 -22 363 -44 23 -145 18 -205 -11 -130 -60 -255
-239 -307 -441 -59 -226 -30 -517 65 -669 38 -61 102 -129 151 -161 107 -69
274 -85 403 -38 101 36 115 39 115 21 0 -17 -58 -72 -110 -104 -19 -12 -64
-31 -100 -43 -54 -19 -81 -21 -160 -18 -128 6 -205 42 -302 140 -76 77 -143
200 -173 318 -26 101 -31 294 -11 428 57 387 236 677 455 739 60 17 160 9 210
-17z m-1341 -4 c182 -47 286 -154 312 -324 28 -179 -62 -348 -237 -444 l-72
-39 50 -80 c253 -404 378 -561 487 -609 48 -22 52 -26 52 -57 l0 -33 -52 0
c-82 0 -177 19 -239 46 -100 45 -196 165 -393 490 -37 62 -83 126 -102 143
-27 25 -32 36 -25 49 17 32 65 74 114 98 144 74 213 219 187 400 -19 142 -93
236 -215 273 -62 19 -92 21 -396 21 l-329 0 0 46 0 46 398 -5 c319 -4 409 -8
460 -21z m-342 -740 c28 -28 34 -42 34 -76 0 -56 -30 -96 -81 -110 -72 -20
-139 33 -139 110 0 42 15 67 53 90 50 31 93 26 133 -14z m-16 -871 c0 -44 0
-44 27 -34 63 24 112 -37 98 -120 -7 -45 -34 -73 -67 -72 -13 0 -42 1 -65 1
l-43 1 0 135 0 134 25 0 c23 0 25 -4 25 -45z m784 6 c20 -21 20 -21 1 -35 -17
-13 -22 -13 -36 0 -21 19 -58 18 -81 -3 -24 -22 -25 -109 -1 -135 20 -23 61
-23 85 -1 17 15 20 16 35 0 16 -15 15 -18 -1 -36 -34 -38 -119 -35 -160 6 -55
55 -41 183 24 216 43 22 105 17 134 -12z m-1116 3 c29 -20 31 -85 2 -114 -25
-25 -25 -24 5 -68 32 -46 31 -52 -2 -52 -22 0 -34 10 -56 45 -38 59 -57 59
-57 0 0 -41 -2 -45 -25 -45 l-25 0 0 125 0 125 68 0 c45 0 75 -5 90 -16z m762
-19 c0 -18 5 -25 20 -25 13 0 20 -7 20 -20 0 -13 -7 -20 -20 -20 -19 0 -21 -5
-18 -57 3 -50 6 -58 23 -58 27 0 32 -32 6 -40 -11 -3 -33 0 -48 7 -26 12 -28
18 -31 78 -2 44 -8 67 -18 73 -19 11 -18 37 1 37 9 0 15 9 15 25 0 20 5 25 25
25 20 0 25 -5 25 -25z m1522 3 c2 -15 11 -24 26 -26 32 -5 30 -42 -3 -42 -23
0 -25 -4 -25 -41 0 -48 16 -83 35 -75 18 6 29 -25 13 -36 -20 -12 -41 -10 -66
8 -19 13 -22 24 -22 80 0 50 -3 64 -15 64 -8 0 -15 9 -15 20 0 11 7 20 15 20
9 0 15 9 15 25 0 33 37 35 42 3z m-2069 -49 c13 -16 17 -40 17 -96 l0 -75 -32
5 c-18 2 -41 1 -50 -4 -26 -14 -68 0 -80 27 -23 50 15 94 82 94 20 0 30 5 30
15 0 19 -46 31 -64 15 -11 -8 -20 -9 -35 0 -28 14 -27 18 12 36 41 18 97 11
120 -17z m425 7 c10 -10 17 -43 20 -95 l5 -81 -49 0 c-27 0 -59 -1 -72 -1 -33
-2 -52 19 -52 56 0 41 18 56 75 63 48 5 54 12 29 33 -12 10 -22 10 -44 2 -36
-13 -72 5 -48 24 31 26 110 25 136 -1z m686 -6 c28 -28 30 -118 3 -148 -25
-27 -71 -35 -112 -18 -66 28 -69 150 -5 184 33 17 88 8 114 -18z m216 10 c17
-17 20 -33 20 -100 0 -79 0 -80 -25 -80 -24 0 -25 2 -25 70 0 56 -3 72 -16 77
-34 13 -49 -11 -52 -81 -3 -63 -4 -66 -27 -66 -25 0 -25 1 -25 95 0 95 0 95
25 95 14 0 25 -4 25 -9 0 -6 12 -3 28 5 36 19 48 18 72 -6z m218 4 c20 -14 22
-24 22 -100 0 -83 0 -84 -25 -84 -24 0 -25 2 -25 75 0 72 -1 75 -23 75 -37 0
-47 -19 -47 -87 0 -61 -1 -63 -25 -63 -25 0 -25 0 -25 95 0 95 0 95 25 95 14
0 25 -4 25 -9 0 -6 12 -3 28 5 34 18 42 18 70 -2z m195 5 c28 -13 47 -48 47
-84 0 -24 -3 -25 -65 -25 -64 0 -65 -1 -54 -21 9 -18 17 -20 49 -16 24 3 46 0
57 -8 17 -13 15 -15 -22 -31 -35 -15 -45 -15 -80 -3 -33 12 -42 21 -54 55 -32
91 41 170 122 133z m212 -1 c46 -21 25 -51 -28 -41 -36 7 -57 -12 -57 -52 0
-41 18 -56 64 -53 20 1 41 -3 48 -10 17 -17 -51 -44 -91 -36 -41 9 -63 35 -68
86 -8 87 57 140 132 106z"/>
<path d="M1674 1796 c-3 -8 -4 -31 -2 -52 3 -36 5 -39 33 -39 37 0 55 39 37
80 -13 28 -59 35 -68 11z"/>
<path d="M1230 1835 c0 -30 3 -35 24 -35 36 0 56 10 56 29 0 25 -20 41 -52 41
-25 0 -28 -3 -28 -35z"/>
<path d="M1473 1740 c-26 -10 -31 -38 -9 -46 22 -8 56 14 56 36 0 22 -12 24
-47 10z"/>
<path d="M1903 1740 c-26 -10 -31 -38 -9 -46 22 -8 56 14 56 36 0 22 -12 24
-47 10z"/>
<path d="M2558 1785 c-18 -41 0 -80 37 -80 23 0 32 6 39 27 14 39 -6 78 -39
78 -18 0 -29 -8 -37 -25z"/>
<path d="M3233 1813 c-28 -11 -13 -33 22 -33 37 0 43 8 23 28 -13 13 -24 14
-45 5z"/>
</g>
</svg>
